<svg width="21" height="26" viewBox="0 0 21 26" fill="none" xmlns="http://www.w3.org/2000/svg">
<path d="M10.4766 14.8691V19.5761" stroke="#383838" stroke-width="1.99993" stroke-miterlimit="10" stroke-linecap="round"/>
<path d="M11.5052 14.611C11.505 14.8142 11.4447 15.013 11.3316 15.1819C11.2186 15.3508 11.0578 15.4824 10.87 15.5601C10.6821 15.6377 10.4756 15.6579 10.2762 15.6182C10.0769 15.5784 9.89377 15.4804 9.75011 15.3365C9.60644 15.1927 9.50844 15.0096 9.46886 14.8102C9.42927 14.6108 9.44986 14.4041 9.52769 14.2163C9.60553 14.0285 9.73732 13.868 9.90636 13.7551C10.0754 13.6422 10.2739 13.582 10.4772 13.582C10.7499 13.5823 11.0114 13.6908 11.2042 13.8838C11.397 14.0767 11.5052 14.3382 11.5052 14.611Z" fill="#394553" stroke="#383838" stroke-width="1.99993" stroke-miterlimit="10"/>
<path d="M16.3918 8.2511H19.9551V24.406H1V8.25305H4.56396V5.48206C4.5687 4.29481 5.04232 3.15751 5.88184 2.31799C6.72135 1.47848 7.85866 1.00474 9.0459 1H11.9099C13.0972 1.00474 14.2345 1.47848 15.074 2.31799C15.9135 3.15751 16.3871 4.29481 16.3918 5.48206V8.2511Z" stroke="#383838" stroke-width="1.99993" stroke-linecap="round" stroke-linejoin="round"/>
<path d="M7.71289 8.25098H13.2569" stroke="#383838" stroke-width="1.99993" stroke-linejoin="round"/>
</svg>
