<svg width="615" height="92" viewBox="0 0 615 92" fill="none" xmlns="http://www.w3.org/2000/svg">
<path d="M417.478 29.0215C404.085 29.0215 393.576 39.4596 393.554 52.7899C393.554 59.2268 396.001 65.2069 400.502 69.6866C404.98 74.1663 411.011 76.6236 417.478 76.6236C430.871 76.6236 441.38 66.1638 441.38 52.8117C441.38 39.4813 430.871 29.0215 417.478 29.0215ZM417.478 38.3505H417.521C425.583 38.3505 431.919 44.6787 431.963 52.7682C431.963 56.6825 430.499 60.3358 427.79 63.0541C425.081 65.7723 421.432 67.2728 417.521 67.2728H417.478C413.589 67.2728 409.984 65.7941 407.296 63.0758C404.609 60.3576 403.123 56.726 403.123 52.7899C403.123 44.7004 409.437 38.3505 417.5 38.3288L417.478 38.3505Z" fill="#333535"/>
<path d="M391.588 62.8591C391.391 62.4677 391.216 62.0545 391.02 61.6631C390.932 61.4673 390.823 61.3151 390.757 61.2064L390.539 60.8367C389.796 59.6407 388.07 59.5537 387.196 60.6627L386.846 61.1194C386.846 61.1194 386.715 61.2934 386.65 61.3804C383.438 65.4034 379.636 67.3823 374.983 67.3823C374 67.3823 372.973 67.2953 371.924 67.0996C364.386 65.8166 359.405 59.1188 360.323 51.5511C360.738 48.224 362.158 45.397 364.561 43.1572C367.423 40.5041 370.701 39.1994 374.633 39.1994C375.048 39.1994 375.507 39.1994 375.944 39.2429C378.894 39.4603 381.494 40.4606 383.875 42.3308C384.989 43.2006 385.994 44.2662 386.956 45.5927L387.196 45.9189C388.092 47.1584 389.993 46.9845 390.67 45.6145L391.26 44.3967C392.09 42.657 392.134 40.9608 391.893 39.5908C391.544 37.6554 390.473 35.894 388.9 34.6979C384.683 31.5448 379.964 29.9355 374.917 29.9355C373.191 29.9355 371.378 30.1313 369.586 30.5009C363.25 31.8275 358.247 35.1764 354.729 40.5041C351.627 45.1795 350.403 50.4638 351.103 56.183C351.824 62.0545 354.423 66.9691 358.837 70.7312C363.381 74.6237 368.603 76.6026 374.371 76.6026C375.966 76.6026 377.605 76.4504 379.265 76.1459C384.443 75.2108 388.878 72.6448 392.461 68.5566C393.248 67.6432 393.401 66.5124 392.877 65.4469C392.461 64.577 392.025 63.7072 391.631 62.8373L391.588 62.8591Z" fill="#333535"/>
<path d="M259.995 26.4558V18.1271V17.54C259.995 16.4309 259.1 15.5176 257.963 15.5176H254.861C252.48 15.5176 250.557 17.4312 250.557 19.8016V34.5889C245.947 31.4357 241.381 30.4354 241.381 30.4354C239.676 30.1092 237.972 29.9352 236.334 29.9352C231.811 29.9352 227.529 31.2182 223.662 33.719C218.047 37.3506 214.638 42.5479 213.48 49.1587C212.41 55.3346 213.568 61.0538 216.932 66.1642C220.603 71.7094 225.781 75.0801 232.379 76.2326C233.865 76.4935 235.35 76.624 236.792 76.624C241.359 76.624 245.619 75.3193 249.508 72.775C255.036 69.1434 258.444 63.9678 259.602 57.4005C259.842 56.0088 259.974 54.4865 259.974 52.7468C259.974 52.4641 259.974 52.1814 259.974 51.8988C259.974 51.2899 259.93 50.7245 259.886 50.1373C259.886 44.5703 259.974 29.9135 259.974 26.4341L259.995 26.4558ZM236.574 67.3819H236.487C228.621 67.3819 222.46 61.2061 222.438 53.334C222.438 49.4849 223.88 45.9186 226.524 43.2656C229.146 40.6343 232.707 39.1773 236.508 39.1773H236.552C244.374 39.1773 250.535 45.3749 250.557 53.2688C250.557 61.1408 244.439 67.3385 236.574 67.3819Z" fill="#333535"/>
<path d="M265.829 35.6532V74.6221C265.829 75.7312 266.724 76.6445 267.86 76.6445H273.257C274.371 76.6445 275.289 75.7529 275.289 74.6221V32.7392C275.289 31.6301 274.393 30.7168 273.257 30.7168H270.766C268.035 30.7168 265.829 32.9131 265.829 35.6314V35.6532Z" fill="#333535"/>
<path d="M265.829 19.17V23.0408C265.829 24.1499 266.724 25.0632 267.86 25.0632H271.203C273.454 25.0632 275.289 23.2365 275.289 20.9967V17.1259C275.289 16.0169 274.393 15.1035 273.257 15.1035H269.914C267.664 15.1035 265.829 16.9302 265.829 19.17Z" fill="#6E68FA"/>
<path d="M308.301 67.4047C307.996 66.3174 306.859 65.6868 305.789 66.013L305.548 66.0782C305.308 66.1434 305.046 66.2304 304.806 66.2957C304.303 66.4479 303.822 66.6001 303.364 66.7088C301.9 67.0785 300.567 67.2525 299.278 67.2525C298.448 67.2525 297.639 67.1655 296.853 67.0133C294.056 66.4696 292.44 64.8604 291.915 62.0987C291.74 61.1853 291.653 60.1633 291.653 59.0542C291.653 53.0523 291.653 45.7674 291.653 38.3955H301.113C304.325 38.3955 306.925 35.8077 306.925 32.611V30.8931C306.925 29.784 306.029 28.8707 304.893 28.8707H291.653C291.653 28.0443 291.653 27.2397 291.653 26.4134V17.7802C291.653 16.6711 290.757 15.7578 289.621 15.7578H287.873C284.661 15.7578 282.062 18.3456 282.062 21.5423V28.0226C282.062 38.3955 282.062 50.3123 282.062 59.163C282.062 62.1639 282.52 64.7299 283.504 67.0133C285.404 71.493 288.813 74.4722 293.685 75.8639C295.433 76.3641 297.246 76.6033 299.256 76.6033C300.086 76.6033 300.917 76.5598 301.812 76.4728C302.512 76.4076 303.626 76.1466 304.806 75.8204C307.821 75.0158 309.59 71.8844 308.738 68.9052L308.301 67.3612V67.4047Z" fill="#333535"/>
<path d="M518.745 26.5204V74.601C518.745 75.71 519.64 76.6234 520.777 76.6234H526.26C527.375 76.6234 528.292 75.7318 528.292 74.601V24.0849C528.292 22.9758 527.397 22.0625 526.26 22.0625H523.224C520.755 22.0625 518.745 24.0631 518.745 26.5204Z" fill="#333535"/>
<path d="M587.108 69.0125L585.819 67.7077L584.355 66.229L577.517 59.379L574.502 56.3563C572.579 54.4209 569.455 54.4209 567.51 56.3563L565.675 58.1829C564.889 58.9658 564.889 60.2488 565.675 61.0317L570.176 65.5549C563.687 68.4906 554.489 67.8164 548.415 61.2274C545.094 57.6175 543.346 52.6377 543.586 47.5274C543.827 42.4605 546.033 37.7199 549.638 34.4797C553.375 31.1308 558.269 29.4346 563.403 29.7173C568.45 30 573.016 32.1529 576.272 35.8062C581.166 41.2862 581.952 48.3102 580.182 54.1164C579.964 54.8558 580.117 55.6386 580.663 56.1823L582.105 57.6175C584.618 60.1401 588.922 58.9223 589.774 55.4864C590.407 52.9204 590.67 50.2239 590.582 47.3969C590.298 39.5248 587.218 32.8705 581.471 27.608C570.941 17.9745 554.248 17.844 543.477 27.3035C538.365 31.7832 535.087 38.0678 534.235 44.9613C533.383 51.8113 535 58.6613 538.78 64.2936C542.756 70.2085 548.262 74.0576 555.122 75.732C557.635 76.3409 560.104 76.6453 562.529 76.6453C567.641 76.6453 572.536 75.2753 577.167 72.5136L578.959 74.3185C579.877 75.2536 581.144 75.7755 582.455 75.7755H589.031C590.823 75.7755 591.74 73.6009 590.473 72.3396L587.174 69.0342L587.108 69.0125Z" fill="#333535"/>
<path d="M346.952 54.7223C345.881 52.4825 344.199 50.5688 341.817 48.8509C339.545 47.2199 337.12 46.0674 334.192 44.8496C333.581 44.5886 332.969 44.3494 332.379 44.1102C330.806 43.4796 329.189 42.8055 327.638 42.1096C326.24 41.479 325.038 40.7178 324.055 39.7828C322.46 38.304 321.914 36.6513 322.307 34.5855C322.613 32.9545 323.574 31.6932 325.213 30.7147C326.808 29.7796 328.599 29.4751 330.762 29.8013C331.877 29.9753 332.816 30.3015 333.581 30.8016C333.712 30.8886 333.887 31.0626 334.083 31.3018C335.787 33.3242 338.759 33.7591 341.031 32.3674L343.063 31.1278H343.019C344.592 30.1493 343.784 28.1486 343.784 28.1486C342.779 26.3654 341.446 24.8432 339.764 23.6254C338.846 22.9513 337.841 22.3859 336.749 21.8858C332.335 19.9069 327.572 19.7329 322.809 21.4073C319.401 22.6034 316.736 24.691 314.9 27.6485C312.606 31.3235 312.016 35.3901 313.152 39.7828C313.939 42.8272 315.709 45.4367 318.571 47.7201C320.537 49.3075 322.875 50.6558 325.934 51.9606C326.917 52.3737 327.944 52.7869 328.905 53.2001C330.129 53.7002 331.374 54.2004 332.597 54.7441C334.324 55.5052 335.678 56.3098 336.792 57.2449C338.693 58.8541 339.261 61.5723 337.907 63.6599C337.098 64.8995 335.918 65.8345 334.258 66.5087C332.357 67.2915 330.303 67.509 328.097 67.1828C326.152 66.9001 324.601 66.139 323.377 64.856C322.766 64.2253 322.351 63.6817 321.914 62.9423C321.761 62.6814 321.258 61.6158 320.821 60.6372C320.362 59.6152 319.139 59.1803 318.134 59.6587L316.168 60.572C313.262 61.9203 312.126 65.4431 313.742 68.2049C313.917 68.5093 314.07 68.7485 314.201 68.9225C315.053 70.075 315.971 71.0754 317.085 72.0104C320.275 74.7287 324.055 76.2509 328.359 76.5771C328.949 76.6206 329.539 76.6423 330.107 76.6423C333.952 76.6423 337.513 75.6638 340.66 73.7284C344.92 71.1188 347.433 67.5307 348.132 63.0076C348.59 60.1153 348.175 57.3318 346.93 54.7441L346.952 54.7223Z" fill="#333535"/>
<path d="M466.811 36.9581V35.2184C466.811 32.4349 464.408 30.2603 461.633 30.5213C461.021 30.5865 460.519 30.63 460.213 30.717C458.88 31.0214 457.657 31.4998 456.499 32.1305C455.953 32.4349 455.428 32.7611 454.926 33.1308V32.8698C454.926 31.7608 454.03 30.8475 452.894 30.8475H450.294C447.628 30.8475 445.465 33.0003 445.465 35.6533V74.644C445.465 75.7531 446.361 76.6664 447.497 76.6664H450.141C452.806 76.6664 454.969 74.5136 454.969 71.8605V67.968C454.969 62.14 454.969 56.0946 454.969 50.158C454.969 49.0489 455.057 47.9616 455.232 46.9395C455.843 43.1775 458.159 40.7854 461.895 40.0025C462.463 39.8721 463.097 39.8286 463.774 39.7416C464.124 39.6981 464.473 39.6764 464.823 39.6329C467.03 39.3937 466.789 36.9798 466.789 36.9798L466.811 36.9581Z" fill="#333535"/>
<path d="M163.119 36.9366V35.1969C163.119 32.4134 160.716 30.2388 157.941 30.4998C157.329 30.565 156.827 30.6085 156.521 30.6955C155.188 30.9999 153.965 31.4783 152.807 32.109C152.261 32.4134 151.736 32.7396 151.234 33.1093V32.8483C151.234 31.7393 150.338 30.826 149.202 30.826H146.602C143.936 30.826 141.773 32.9788 141.773 35.6318V74.6225C141.773 75.7316 142.669 76.6449 143.805 76.6449H146.449C149.114 76.6449 151.277 74.4921 151.277 71.839V67.9465C151.277 62.1186 151.277 56.0731 151.277 50.1365C151.277 49.0274 151.365 47.9401 151.54 46.9181C152.151 43.156 154.467 40.7639 158.203 39.9811C158.771 39.8506 159.405 39.8071 160.082 39.7201C160.432 39.6766 160.782 39.6549 161.131 39.6114C163.338 39.3722 163.097 36.9584 163.097 36.9584L163.119 36.9366Z" fill="#333535"/>
<path d="M175.988 52.2898C175.988 53.1161 176.032 54.0077 176.185 54.9428C176.337 55.9214 177.211 56.6172 178.195 56.6172H201.813C207.1 56.6172 211.011 51.6374 209.634 46.5706C209.394 45.7007 209.132 44.8526 208.848 44.0263C208.695 43.5696 208.52 43.1129 208.302 42.6563C207.952 41.8299 207.559 41.0688 207.122 40.3947C202.949 33.4794 195.389 29.0215 186.628 29.0215C173.235 29.0215 162.726 39.4596 162.704 52.7899C162.704 59.205 165.151 65.2069 169.652 69.6866C174.131 74.1663 180.161 76.6236 186.628 76.6236C190.91 76.6236 194.974 75.5363 198.557 73.5139C199.082 73.2095 199.868 72.6223 200.72 71.9265C203.342 69.7736 203.189 65.7288 200.414 63.7934L199.147 62.9019C198.186 62.293 197.399 62.6626 196.962 62.9888C196.744 63.1628 196.591 63.3368 196.591 63.3368C193.925 65.8593 190.386 67.2511 186.628 67.2511H186.584C182.695 67.2511 179.09 65.7723 176.403 63.0541C175.638 62.293 174.983 61.4449 174.437 60.5533C174.437 60.5533 174.415 60.5098 174.393 60.488C173.65 59.2703 173.082 57.9655 172.733 56.5737H172.798C170.679 49.0279 175.048 44.0915 175.048 44.0915C177.648 40.5686 181.821 38.3288 186.606 38.3071H186.65C192.855 38.3071 198.186 42.1561 200.218 47.7448H180.642C178.129 47.7448 176.032 49.7237 175.988 52.2245V52.2898Z" fill="#333535"/>
<path d="M479.593 52.2898C479.593 53.1161 479.637 54.0077 479.79 54.9428C479.943 55.9214 480.817 56.6172 481.8 56.6172H505.418C510.705 56.6172 514.616 51.6374 513.24 46.5706C512.999 45.7007 512.737 44.8526 512.453 44.0263C512.3 43.5696 512.126 43.1129 511.907 42.6563C511.557 41.8299 511.164 41.0688 510.727 40.3947C506.554 33.4794 498.995 29.0215 490.234 29.0215C476.84 29.0215 466.331 39.4596 466.31 52.7899C466.31 59.205 468.757 65.2069 473.257 69.6866C477.736 74.1663 483.766 76.6236 490.234 76.6236C494.516 76.6236 498.58 75.5363 502.163 73.5139C502.687 73.2095 503.474 72.6223 504.326 71.9265C506.948 69.7736 506.795 65.7288 504.02 63.7934L502.753 62.9019C501.791 62.293 501.005 62.6626 500.568 62.9888C500.349 63.1628 500.196 63.3368 500.196 63.3368C497.531 65.8593 493.991 67.2511 490.234 67.2511H490.19C486.301 67.2511 482.696 65.7723 480.008 63.0541C479.244 62.293 478.588 61.4449 478.042 60.5533C478.042 60.5533 478.02 60.5098 477.998 60.488C477.256 59.2703 476.688 57.9655 476.338 56.5737H476.403C474.284 49.0279 478.654 44.0915 478.654 44.0915C481.254 40.5686 485.427 38.3288 490.212 38.3071H490.255C496.46 38.3071 501.791 42.1561 503.823 47.7448H484.247C481.735 47.7448 479.637 49.7237 479.593 52.2245V52.2898Z" fill="#333535"/>
<path d="M138.103 64.9031L137.011 63.0982C135.59 60.7496 132.357 60.3365 130.391 62.2501C129.823 62.7938 129.342 63.2287 129.058 63.4462C127.944 64.2508 126.72 64.9684 125.409 65.5555C121.411 67.3387 117.15 67.7519 112.737 66.7516C107.057 65.4685 103.058 62.4023 100.48 57.379C98.7105 53.9431 98.0987 50.2245 98.6012 45.9623C99.0819 41.874 100.677 38.3729 103.342 35.5677C106.794 31.9361 111.077 30.0442 116.451 29.8267C122.35 29.5875 127.485 31.6534 131.723 35.9809C131.811 36.0896 131.92 36.1766 132.007 36.2853L132.248 36.5463C133.187 37.5683 134.869 37.3726 135.525 36.1548L136.88 33.654C138.059 31.5229 137.557 28.8482 135.722 27.2607C134.411 26.1299 133.012 24.9774 132.117 24.4554C127.507 21.7372 122.591 20.3672 117.478 20.3672C114.813 20.3672 112.082 20.7369 109.307 21.4762C101.42 23.5856 95.5643 28.3045 91.8938 35.5025C89.0972 40.9825 88.2014 47.0279 89.272 53.4865C90.2115 59.1622 92.5711 63.9681 96.3071 67.7736C102.053 73.6233 108.914 76.6025 116.735 76.6025C119.182 76.6025 121.739 76.2981 124.36 75.7327C129.538 74.5801 133.493 72.5578 137.338 68.4912C137.338 68.4912 139.13 66.7081 138.081 64.8814L138.103 64.9031Z" fill="#333535"/>
<path d="M7.20995 42.0471C7.20995 40.0682 5.59318 38.459 3.60498 38.459C1.61678 38.459 0 40.0682 0 42.0471C0 44.026 1.61678 45.6352 3.60498 45.6352C5.59318 45.6352 7.20995 44.026 7.20995 42.0471Z" fill="url(#paint0_linear_587_17997)"/>
<path d="M4.76291 52.0509C2.9058 52.725 1.92262 54.7909 2.62177 56.6393C3.29907 58.4877 5.37466 59.4663 7.23177 58.7704C9.08888 58.0963 10.0721 56.0304 9.37291 54.182C8.69561 52.3336 6.62002 51.355 4.76291 52.0509Z" fill="url(#paint1_linear_587_17997)"/>
<path d="M15.6211 19.2811C16.8884 17.7588 16.6917 15.4972 15.1842 14.236C13.6548 12.9747 11.3826 13.1704 10.1154 14.6709C8.84816 16.1931 9.0448 18.4547 10.5523 19.716C12.0817 20.9772 14.3539 20.7815 15.6211 19.2811Z" fill="url(#paint2_linear_587_17997)"/>
<path d="M7.27576 25.3449C5.41865 24.6708 3.34306 25.6276 2.66576 27.476C1.98846 29.3245 2.94979 31.3903 4.8069 32.0645C6.66401 32.7386 8.7396 31.7818 9.4169 29.9333C10.0942 28.0849 9.13287 26.019 7.27576 25.3449Z" fill="url(#paint3_linear_587_17997)"/>
<path d="M65.0209 16.7338C63.2293 16.7338 61.5251 17.147 59.9957 17.8429C55.8009 14.9941 50.9287 13.2109 45.7725 12.7108C45.5758 12.6673 45.3792 12.6238 45.1607 12.6021C39.8516 12.2106 34.4769 13.2544 29.6702 15.5378C29.4518 15.6465 29.2333 15.7335 29.0148 15.8422C28.556 16.0597 28.119 16.2989 27.682 16.5598C27.4199 16.7121 27.1577 16.8643 26.8955 17.0165C26.5678 17.2122 26.2619 17.4297 25.956 17.6254C21.9796 20.2784 18.6368 23.8448 16.2772 27.9983C16.1024 28.2157 15.9495 28.4549 15.8184 28.7159C13.6554 32.9781 12.563 37.5665 12.563 42.3724C12.563 48.0046 14.1142 53.4847 17.0856 58.247C17.8284 59.4648 19.1393 60.1172 20.4721 60.1172C21.1931 60.1172 21.9141 59.9215 22.5477 59.5301C24.4048 58.3775 24.9947 55.942 23.8367 54.0935C21.6519 50.5707 20.5158 46.5259 20.5158 42.3724C20.5158 39.1105 21.2149 35.9573 22.5695 33.0434C22.6132 32.9781 22.6569 32.9129 22.7006 32.8476C24.5796 29.1073 27.5291 25.9324 31.1122 23.7578C31.287 23.6491 31.44 23.5621 31.6147 23.4533C31.9643 23.2576 32.3139 23.0619 32.6853 22.8879C35.7441 21.344 39.1306 20.4959 42.5608 20.4524C42.6482 20.4524 42.7356 20.4741 42.8229 20.4741C46.8867 20.4741 50.7976 21.5614 54.1841 23.5621C53.4194 25.1278 52.9824 26.8892 52.9824 28.7594C52.9824 35.3702 58.379 40.7632 65.0427 40.7632C71.7065 40.7632 77.103 35.3919 77.103 28.7594C77.103 22.1268 71.7065 16.7556 65.0427 16.7556L65.0209 16.7338ZM65.0209 33.2826C62.5957 33.2826 60.6293 31.3907 60.4764 29.0203C60.4764 28.9333 60.4546 28.8464 60.4546 28.7376C60.4546 26.2151 62.5083 24.1927 65.0209 24.1927C65.8074 24.1927 66.5502 24.4102 67.2057 24.7581C68.6258 25.541 69.5872 27.0197 69.5872 28.7376C69.5872 31.2602 67.5334 33.2826 65.0209 33.2826Z" fill="url(#paint4_linear_587_17997)"/>
<path d="M36.6179 7.12589C38.5843 6.77796 39.8733 4.92954 39.5456 2.97239C39.196 1.01525 37.3389 -0.267769 35.3726 0.0584216C33.4062 0.406359 32.1172 2.25477 32.4449 4.21192C32.7945 6.16907 34.6516 7.45208 36.6179 7.12589Z" fill="url(#paint5_linear_587_17997)"/>
<path d="M24.9732 11.342C26.6992 10.3634 27.2891 8.16706 26.2841 6.44912C25.3009 4.73118 23.0942 4.14404 21.3682 5.14436C19.6422 6.12293 19.0523 8.31928 20.0573 10.0372C21.0405 11.7552 23.2472 12.3423 24.9732 11.342Z" fill="url(#paint6_linear_587_17997)"/>
<path d="M60.716 11.3412C62.442 12.3198 64.6269 11.7327 65.6319 10.0365C66.6151 8.31854 66.0252 6.14393 64.321 5.14361C62.595 4.16504 60.4101 4.75219 59.4051 6.44838C58.4219 8.16632 59.0119 10.3409 60.716 11.3412Z" fill="url(#paint7_linear_587_17997)"/>
<path d="M49.0935 7.12364C51.0598 7.47157 52.9169 6.16681 53.2665 4.20966C53.6161 2.25252 52.3052 0.404101 50.3388 0.0561637C48.3725 -0.291773 46.5154 1.01299 46.1658 2.97014C45.8162 4.92728 47.1271 6.7757 49.0935 7.12364Z" fill="url(#paint8_linear_587_17997)"/>
<path d="M47.4327 87.0645H40.2664C39.6328 87.0645 39.174 87.6733 39.327 88.304C39.8732 90.2829 41.6866 91.7181 43.8496 91.7181C46.0125 91.7181 47.826 90.2611 48.3722 88.304C48.547 87.6951 48.0881 87.0645 47.4327 87.0645Z" fill="#9A9A9A"/>
<path d="M40.0263 80.9743C39.3709 80.9743 38.8247 80.4306 38.8247 79.7782C38.8247 79.1258 39.3709 78.5822 40.0263 78.5822H46.9523C47.6077 78.5822 48.1539 79.1258 48.1539 79.7782C48.1539 80.4306 47.6077 80.9743 46.9523 80.9743H40.0263ZM40.0263 74.4504C39.3709 74.4504 38.8247 73.9068 38.8247 73.2544C38.8247 72.7542 39.1305 72.3411 39.5457 72.1454C39.6986 72.0801 39.8515 72.0366 40.0263 72.0366H41.7087H41.6868H45.2699H45.2481H46.9523C47.127 72.0366 47.28 72.0801 47.4329 72.1454C47.8699 72.3193 48.1539 72.7542 48.1539 73.2544C48.1539 73.9068 47.6077 74.4504 46.9523 74.4504H40.0263ZM42.8229 66.3174C42.1456 66.3174 41.4683 66.2739 40.791 66.2304C40.791 61.7942 40.791 56.3795 40.791 52.2477V51.8345C41.4028 51.8998 41.949 51.9433 42.517 52.0302C43.0851 52.0955 43.675 52.139 44.2431 52.139C44.9859 52.139 45.7069 52.0737 46.4279 51.8998C46.559 51.8563 46.6682 51.8563 46.7556 51.8563C46.9741 51.8563 47.0615 51.9868 47.0396 52.2912C47.0396 56.336 47.0396 61.642 47.0396 65.9695C45.6632 66.2304 44.2431 66.3609 42.8229 66.3609M49.1808 49.1163L49.006 49.0075C49.006 48.3987 49.006 47.768 49.006 47.1591C49.0278 45.7674 49.2463 44.4191 50.0329 43.2231C50.4043 42.6794 50.9942 42.3315 51.6278 42.3315C51.7807 42.3315 51.9555 42.3315 52.1085 42.3967C53.1353 42.6794 53.6815 43.2883 53.7034 44.2452C53.7471 45.6369 53.1135 46.7025 52.0429 47.4636C51.1471 48.0942 50.1203 48.5726 49.1589 49.1163M38.628 49.0728C37.4045 48.4421 36.1155 48.0072 35.1541 47.0069C34.4768 46.311 34.0617 45.5064 34.0399 44.5279C33.9962 43.5058 34.6516 42.6142 35.6785 42.3967C35.8751 42.3532 36.0499 42.3315 36.2247 42.3315C37.0986 42.3315 37.7104 42.8534 38.1692 43.9407C38.8465 45.5282 38.8028 47.2244 38.7591 48.8988L38.6717 49.0728M36.3121 40.2874C35.8096 40.2874 35.2634 40.3744 34.739 40.5701C32.6416 41.3094 31.7895 43.2448 32.1609 45.2672C32.5542 47.3766 33.7777 48.8336 35.613 49.7904C36.5524 50.2906 37.5356 50.7037 38.4751 51.1604L38.781 51.5736V52.0085C38.781 56.1403 38.781 61.5768 38.781 65.9912C35.5474 65.4258 32.4668 64.2298 29.7139 62.4031C29.2332 62.0769 28.6433 61.9247 28.0753 61.9247C27.0921 61.9247 26.1308 62.3814 25.6064 63.2077C24.8199 64.4907 25.1695 66.1652 26.4367 67.0133C29.1459 68.84 32.0954 70.1447 35.2197 70.9928C34.892 71.6887 34.6735 72.4498 34.6735 73.2761C34.6735 74.5157 35.0886 75.6465 35.8096 76.5381C35.0886 77.4731 34.6516 78.6474 34.6735 79.9304C34.739 82.8662 37.339 85.1278 40.2667 85.1278H45.9691C49.6178 85.1278 52.1959 82.8662 52.2833 79.9304C52.3051 78.6474 51.89 77.4731 51.1471 76.5381C51.8463 75.6465 52.2833 74.5157 52.2833 73.2761C52.2833 72.3193 52.0211 71.3842 51.5841 70.6014C61.9621 67.296 70.0678 58.3584 71.772 47.2461C72.0123 45.6369 70.8543 44.1582 69.2157 44.0059C69.1283 44.0059 69.0628 44.0059 68.9754 44.0059C67.5771 44.0059 66.3536 45.0932 66.1351 46.5067C64.6931 55.7488 57.7672 63.1207 48.9841 65.5128C48.9841 63.4904 48.9841 60.9679 48.9841 59.4022C48.9841 56.8579 48.9841 54.3136 48.9841 51.791C48.9841 51.4214 49.0934 51.2474 49.4648 51.0952C50.9723 50.4645 52.5236 49.8556 53.7252 48.7031C55.2765 47.2244 56.0193 45.4412 55.5605 43.2883C55.2328 41.8096 54.2278 40.9398 52.8295 40.5266C52.3488 40.3744 51.8681 40.3091 51.4312 40.3091C49.4867 40.3091 48.0447 41.7226 47.3455 44.4191C47.1052 45.289 47.0178 46.1806 47.0178 47.0721C47.0178 47.8115 47.0178 48.5726 47.0178 49.312C47.0178 49.7469 46.8212 49.8121 46.3187 49.8774C45.6414 49.9861 44.9641 50.0296 44.2868 50.0296C43.9372 50.0296 43.5658 50.0296 43.2162 49.9861C41.0532 49.8556 40.7692 49.9426 40.7692 49.3337C40.7255 48.0507 40.7255 46.746 40.5944 45.4629C40.4414 44.0712 39.9826 42.7882 39.1087 41.6574C38.344 40.7005 37.3608 40.2656 36.2684 40.2656" fill="#9A9A9A"/>
<path d="M595.459 34.7618C594.667 34.7618 593.954 34.6259 593.32 34.3542C592.686 34.0711 592.187 33.6749 591.825 33.1654C591.463 32.656 591.282 32.0616 591.282 31.3823H593.354C593.399 31.8918 593.597 32.3107 593.948 32.639C594.31 32.9673 594.814 33.1315 595.459 33.1315C596.127 33.1315 596.648 32.973 597.022 32.656C597.395 32.3277 597.582 31.9088 597.582 31.3993C597.582 31.0031 597.463 30.6804 597.225 30.4313C596.999 30.1823 596.71 29.9898 596.359 29.8539C596.02 29.7181 595.544 29.5709 594.933 29.4124C594.163 29.2086 593.535 29.0048 593.048 28.801C592.572 28.5859 592.165 28.2576 591.825 27.8161C591.486 27.3746 591.316 26.7858 591.316 26.0499C591.316 25.3707 591.486 24.7763 591.825 24.2668C592.165 23.7574 592.64 23.3668 593.252 23.0951C593.863 22.8234 594.571 22.6875 595.374 22.6875C596.518 22.6875 597.452 22.9762 598.176 23.5536C598.912 24.1197 599.32 24.9008 599.399 25.8971H597.259C597.225 25.4669 597.022 25.099 596.648 24.7933C596.274 24.4876 595.782 24.3348 595.171 24.3348C594.616 24.3348 594.163 24.4763 593.812 24.7593C593.461 25.0423 593.286 25.4499 593.286 25.982C593.286 26.3443 593.393 26.6443 593.608 26.8821C593.835 27.1085 594.118 27.2896 594.457 27.4255C594.797 27.5614 595.261 27.7085 595.85 27.867C596.631 28.0821 597.265 28.2972 597.752 28.5123C598.25 28.7275 598.669 29.0614 599.009 29.5143C599.36 29.9558 599.535 30.5502 599.535 31.2974C599.535 31.8974 599.371 32.4635 599.043 32.9956C598.726 33.5277 598.256 33.9579 597.633 34.2863C597.022 34.6033 596.297 34.7618 595.459 34.7618Z" fill="#333535"/>
<path d="M614.25 22.8403V34.6429H612.314V26.5594L608.714 34.6429H607.373L603.755 26.5594V34.6429H601.819V22.8403H603.908L608.052 32.0956L612.178 22.8403H614.25Z" fill="#333535"/>
<defs>
<linearGradient id="paint0_linear_587_17997" x1="3.47389" y1="42.1993" x2="50.2854" y2="-1.81645" gradientUnits="userSpaceOnUse">
<stop offset="0.04" stop-color="#0AE7FE"/>
<stop offset="0.45" stop-color="#1FA5FE"/>
<stop offset="1" stop-color="#A240F6"/>
</linearGradient>
<linearGradient id="paint1_linear_587_17997" x1="11.2519" y1="50.5069" x2="58.0853" y2="6.49107" gradientUnits="userSpaceOnUse">
<stop offset="0.04" stop-color="#0AE7FE"/>
<stop offset="0.45" stop-color="#1FA5FE"/>
<stop offset="1" stop-color="#A240F6"/>
</linearGradient>
<linearGradient id="paint2_linear_587_17997" x1="-4.78521" y1="33.416" x2="42.0263" y2="-10.5998" gradientUnits="userSpaceOnUse">
<stop offset="0.04" stop-color="#0AE7FE"/>
<stop offset="0.45" stop-color="#1FA5FE"/>
<stop offset="1" stop-color="#A240F6"/>
</linearGradient>
<linearGradient id="paint3_linear_587_17997" x1="-2.09718" y1="36.2832" x2="44.7363" y2="-7.71091" gradientUnits="userSpaceOnUse">
<stop offset="0.04" stop-color="#0AE7FE"/>
<stop offset="0.45" stop-color="#1FA5FE"/>
<stop offset="1" stop-color="#A240F6"/>
</linearGradient>
<linearGradient id="paint4_linear_587_17997" x1="17.5226" y1="57.1597" x2="64.3341" y2="13.144" gradientUnits="userSpaceOnUse">
<stop offset="0.04" stop-color="#0AE7FE"/>
<stop offset="0.45" stop-color="#1FA5FE"/>
<stop offset="1" stop-color="#A240F6"/>
</linearGradient>
<linearGradient id="paint5_linear_587_17997" x1="-0.699057" y1="37.7661" x2="46.1125" y2="-6.24966" gradientUnits="userSpaceOnUse">
<stop offset="0.04" stop-color="#0AE7FE"/>
<stop offset="0.45" stop-color="#1FA5FE"/>
<stop offset="1" stop-color="#A240F6"/>
</linearGradient>
<linearGradient id="paint6_linear_587_17997" x1="-4.36916" y1="33.8709" x2="42.4644" y2="-10.1232" gradientUnits="userSpaceOnUse">
<stop offset="0.04" stop-color="#0AE7FE"/>
<stop offset="0.45" stop-color="#1FA5FE"/>
<stop offset="1" stop-color="#A240F6"/>
</linearGradient>
<linearGradient id="paint7_linear_587_17997" x1="14.0043" y1="53.3981" x2="60.8159" y2="9.40413" gradientUnits="userSpaceOnUse">
<stop offset="0.04" stop-color="#0AE7FE"/>
<stop offset="0.45" stop-color="#1FA5FE"/>
<stop offset="1" stop-color="#A240F6"/>
</linearGradient>
<linearGradient id="paint8_linear_587_17997" x1="5.70266" y1="44.5704" x2="52.5143" y2="0.576363" gradientUnits="userSpaceOnUse">
<stop offset="0.04" stop-color="#0AE7FE"/>
<stop offset="0.45" stop-color="#1FA5FE"/>
<stop offset="1" stop-color="#A240F6"/>
</linearGradient>
</defs>
</svg>
